<svg width="355" height="145" viewBox="0 0 355 145" fill="none" xmlns="http://www.w3.org/2000/svg">
<path d="M7.552 101C6.912 101 6.592 100.765 6.592 100.296C6.592 99.8267 6.86933 99.5707 7.424 99.528L10.304 99.08C11.1573 98.952 11.7333 98.7387 12.032 98.44C12.3307 98.0987 12.48 97.48 12.48 96.584V58.184C12.48 57.5867 12.352 57.16 12.096 56.904C11.84 56.648 11.3067 56.52 10.496 56.52C8.91733 56.52 7.36 57.2027 5.824 58.568C4.288 59.9333 3.28533 62.1307 2.816 65.16L2.496 67.272C2.41067 67.8267 2.112 68.104 1.6 68.104C0.96 68.104 0.682667 67.7413 0.768 67.016L1.344 55.432C1.42933 54.4507 1.81333 53.96 2.496 53.96C2.79467 53.96 3.072 54.0453 3.328 54.216C3.584 54.344 4.01067 54.4933 4.608 54.664C5.248 54.8347 6.25067 54.92 7.616 54.92H21.888C23.2533 54.92 24.2347 54.8347 24.832 54.664C25.472 54.4933 25.92 54.344 26.176 54.216C26.4747 54.0453 26.752 53.96 27.008 53.96C27.6907 53.96 28.0747 54.4507 28.16 55.432L28.736 67.016C28.8213 67.7413 28.544 68.104 27.904 68.104C27.392 68.104 27.0933 67.8267 27.008 67.272L26.688 65.16C26.2613 62.1307 25.28 59.9333 23.744 58.568C22.208 57.2027 20.6293 56.52 19.008 56.52C18.1973 56.52 17.664 56.648 17.408 56.904C17.152 57.16 17.024 57.5867 17.024 58.184V96.584C17.024 97.48 17.1733 98.0987 17.472 98.44C17.8133 98.7387 18.3893 98.952 19.2 99.08L22.08 99.528C22.6347 99.5707 22.912 99.8267 22.912 100.296C22.912 100.765 22.592 101 21.952 101H7.552ZM57.66 101.576C53.948 101.576 51.58 99.144 50.556 94.28L49.084 87.176C48.6147 84.872 48.0813 83.1227 47.484 81.928C46.9293 80.7333 46.14 79.9227 45.116 79.496C44.1347 79.0693 42.7693 78.856 41.02 78.856C40.4227 78.856 39.9533 79.0267 39.612 79.368C39.2707 79.6667 39.1 80.0507 39.1 80.52V96.52C39.1 97.416 39.2707 98.0347 39.612 98.376C39.9533 98.6747 40.7213 98.9307 41.916 99.144L44.284 99.528C44.7533 99.6133 44.988 99.848 44.988 100.232C44.988 100.744 44.668 101 44.028 101H31.036C30.396 101 30.076 100.765 30.076 100.296C30.076 99.912 30.3533 99.656 30.908 99.528L32.38 99.272C33.276 99.1013 33.852 98.8667 34.108 98.568C34.4067 98.2693 34.556 97.672 34.556 96.776V59.144C34.556 58.248 34.4067 57.6507 34.108 57.352C33.852 57.0533 33.276 56.8187 32.38 56.648L30.908 56.392C30.3533 56.264 30.076 56.008 30.076 55.624C30.076 55.1547 30.396 54.92 31.036 54.92H44.028C46.5453 54.92 48.7853 55.4107 50.748 56.392C52.7107 57.3733 54.2467 58.7387 55.356 60.488C56.4653 62.1947 57.02 64.1787 57.02 66.44C57.02 69.128 56.2093 71.56 54.588 73.736C52.9667 75.8693 50.9187 77.384 48.444 78.28C48.1453 78.3653 47.9747 78.5147 47.932 78.728C47.932 78.8987 48.0813 79.048 48.38 79.176C49.7453 79.816 50.812 80.712 51.58 81.864C52.3907 83.016 53.0093 84.552 53.436 86.472L54.844 93C55.3133 95.2187 55.868 96.7973 56.508 97.736C57.148 98.6747 57.9587 99.144 58.94 99.144C59.2813 99.144 59.58 99.1013 59.836 99.016C60.1347 98.888 60.4973 98.6747 60.924 98.376C61.2653 98.1627 61.5853 98.12 61.884 98.248C62.1827 98.3333 62.332 98.5467 62.332 98.888C62.332 99.6133 61.8627 100.253 60.924 100.808C59.9853 101.32 58.8973 101.576 57.66 101.576ZM43.388 77.256C46.2893 77.256 48.4867 76.296 49.98 74.376C51.4733 72.4133 52.22 69.8107 52.22 66.568C52.22 63.4107 51.3453 60.9573 49.596 59.208C47.8893 57.416 45.5213 56.52 42.492 56.52C40.2307 56.52 39.1 57.3733 39.1 59.08V73.736C39.1 76.0827 40.5293 77.256 43.388 77.256ZM77.3825 101.576C75.0785 101.576 73.0305 101.043 71.2385 99.976C69.4892 98.8667 68.1238 97.352 67.1425 95.432C66.1612 93.4693 65.6705 91.2293 65.6705 88.712V59.144C65.6705 58.248 65.5212 57.6507 65.2225 57.352C64.9665 57.0533 64.3905 56.8187 63.4945 56.648L62.0225 56.392C61.4678 56.264 61.1905 56.008 61.1905 55.624C61.1905 55.1547 61.5105 54.92 62.1505 54.92H73.8625C74.5025 54.92 74.8225 55.176 74.8225 55.688C74.8225 56.072 74.5878 56.3067 74.1185 56.392L72.3905 56.648C71.5372 56.776 70.9612 57.0107 70.6625 57.352C70.3638 57.6933 70.2145 58.312 70.2145 59.208V88.776C70.2145 92.0187 70.9398 94.536 72.3905 96.328C73.8412 98.12 75.8678 99.016 78.4705 99.016C81.1158 99.016 83.1638 98.12 84.6145 96.328C86.0652 94.536 86.7905 92.0187 86.7905 88.776V60.488C86.7905 58.184 86.0652 56.904 84.6145 56.648L82.8865 56.392C82.4172 56.3067 82.1825 56.072 82.1825 55.688C82.1825 55.176 82.5025 54.92 83.1425 54.92H92.3585C92.9985 54.92 93.3185 55.1547 93.3185 55.624C93.3185 56.008 93.0412 56.264 92.4865 56.392L91.0145 56.648C89.5638 56.904 88.8385 58.1627 88.8385 60.424V88.712C88.8385 92.5947 87.7932 95.7093 85.7025 98.056C83.6118 100.403 80.8385 101.576 77.3825 101.576ZM113.615 100.36C113.444 100.36 113.252 100.296 113.039 100.168C112.826 100.04 112.676 99.7627 112.591 99.336L102.927 60.104C102.884 59.8053 102.756 59.6773 102.543 59.72C102.33 59.72 102.223 59.8693 102.223 60.168L100.943 95.496C100.9 96.6907 101.092 97.608 101.519 98.248C101.946 98.8453 102.692 99.2293 103.759 99.4L104.591 99.528C105.146 99.5707 105.423 99.8267 105.423 100.296C105.423 100.765 105.103 101 104.463 101H95.311C94.671 101 94.351 100.765 94.351 100.296C94.351 99.8267 94.6283 99.5707 95.183 99.528L96.015 99.4C97.1243 99.2293 97.871 98.8453 98.255 98.248C98.6817 97.608 98.9163 96.6907 98.959 95.496L100.239 59.144C100.282 58.248 100.154 57.6507 99.855 57.352C99.5563 57.0533 98.9163 56.8187 97.935 56.648L96.463 56.392C95.9083 56.264 95.631 56.008 95.631 55.624C95.631 55.1547 95.951 54.92 96.591 54.92H104.271C105.594 54.92 106.404 55.56 106.703 56.84L114.447 88.776C114.532 89.0747 114.66 89.224 114.831 89.224C115.044 89.224 115.172 89.0747 115.215 88.776L123.279 56.52C123.535 55.4533 124.218 54.92 125.327 54.92H132.879C133.519 54.92 133.839 55.1547 133.839 55.624C133.839 56.008 133.562 56.264 133.007 56.392L131.535 56.648C130.639 56.8187 130.042 57.0533 129.743 57.352C129.444 57.6507 129.316 58.248 129.359 59.144L130.639 96.776C130.682 97.672 130.831 98.2693 131.087 98.568C131.343 98.8667 131.919 99.1013 132.815 99.272L134.287 99.528C134.842 99.656 135.119 99.912 135.119 100.296C135.119 100.765 134.799 101 134.159 101H122.575C121.935 101 121.615 100.765 121.615 100.296C121.615 99.912 121.892 99.656 122.447 99.528L123.919 99.272C124.815 99.1013 125.412 98.8667 125.711 98.568C126.01 98.2693 126.138 97.672 126.095 96.776L125.007 60.168C125.007 59.8693 124.9 59.72 124.687 59.72C124.516 59.6773 124.388 59.784 124.303 60.04L114.575 99.336C114.49 99.7627 114.34 100.04 114.127 100.168C113.956 100.296 113.786 100.36 113.615 100.36ZM137.054 101C136.414 101 136.094 100.765 136.094 100.296C136.094 99.912 136.371 99.656 136.926 99.528L138.398 99.272C139.294 99.1013 139.87 98.8667 140.126 98.568C140.424 98.2693 140.574 97.672 140.574 96.776V59.144C140.574 58.248 140.424 57.6507 140.126 57.352C139.87 57.0533 139.294 56.8187 138.398 56.648L136.926 56.392C136.371 56.264 136.094 56.008 136.094 55.624C136.094 55.1547 136.414 54.92 137.054 54.92H150.43C152.947 54.92 155.166 55.4747 157.086 56.584C159.006 57.6507 160.499 59.144 161.566 61.064C162.632 62.984 163.166 65.2027 163.166 67.72C163.166 70.152 162.632 72.3067 161.566 74.184C160.499 76.0613 159.027 77.5333 157.15 78.6C155.272 79.624 153.096 80.136 150.622 80.136H146.014C145.416 80.136 145.118 80.4347 145.118 81.032V96.52C145.118 97.416 145.288 98.0347 145.63 98.376C145.971 98.6747 146.739 98.9307 147.934 99.144L150.302 99.528C150.771 99.6133 151.006 99.848 151.006 100.232C151.006 100.744 150.686 101 150.046 101H137.054ZM145.118 75.016C145.118 77.3627 146.547 78.536 149.406 78.536C152.179 78.536 154.355 77.5547 155.934 75.592C157.555 73.6293 158.366 70.9413 158.366 67.528C158.366 64.0293 157.555 61.32 155.934 59.4C154.312 57.48 152.008 56.52 149.022 56.52C146.419 56.52 145.118 57.3733 145.118 59.08V75.016ZM181.837 101C181.197 101 180.877 100.765 180.877 100.296C180.877 99.8267 181.154 99.5707 181.709 99.528L184.589 99.08C185.442 98.952 186.018 98.7387 186.317 98.44C186.616 98.0987 186.765 97.48 186.765 96.584V58.184C186.765 57.5867 186.637 57.16 186.381 56.904C186.125 56.648 185.592 56.52 184.781 56.52C183.202 56.52 181.645 57.2027 180.109 58.568C178.573 59.9333 177.57 62.1307 177.101 65.16L176.781 67.272C176.696 67.8267 176.397 68.104 175.885 68.104C175.245 68.104 174.968 67.7413 175.053 67.016L175.629 55.432C175.714 54.4507 176.098 53.96 176.781 53.96C177.08 53.96 177.357 54.0453 177.613 54.216C177.869 54.344 178.296 54.4933 178.893 54.664C179.533 54.8347 180.536 54.92 181.901 54.92H196.173C197.538 54.92 198.52 54.8347 199.117 54.664C199.757 54.4933 200.205 54.344 200.461 54.216C200.76 54.0453 201.037 53.96 201.293 53.96C201.976 53.96 202.36 54.4507 202.445 55.432L203.021 67.016C203.106 67.7413 202.829 68.104 202.189 68.104C201.677 68.104 201.378 67.8267 201.293 67.272L200.973 65.16C200.546 62.1307 199.565 59.9333 198.029 58.568C196.493 57.2027 194.914 56.52 193.293 56.52C192.482 56.52 191.949 56.648 191.693 56.904C191.437 57.16 191.309 57.5867 191.309 58.184V96.584C191.309 97.48 191.458 98.0987 191.757 98.44C192.098 98.7387 192.674 98.952 193.485 99.08L196.365 99.528C196.92 99.5707 197.197 99.8267 197.197 100.296C197.197 100.765 196.877 101 196.237 101H181.837ZM230.793 101.64C230.622 101.64 230.452 101.576 230.281 101.448C230.11 101.32 229.982 101.043 229.897 100.616L224.969 80.776C224.926 80.4347 224.798 80.2853 224.585 80.328C224.372 80.328 224.222 80.4773 224.137 80.776L218.633 100.616C218.505 101.043 218.356 101.32 218.185 101.448C218.057 101.576 217.908 101.64 217.737 101.64C217.566 101.64 217.374 101.576 217.161 101.448C216.99 101.32 216.862 101.043 216.777 100.616L206.665 60.04C206.366 58.8453 206.025 58.0133 205.641 57.544C205.3 57.0747 204.702 56.7547 203.849 56.584L202.889 56.392C202.292 56.264 201.993 55.9867 201.993 55.56C201.993 55.1333 202.313 54.92 202.953 54.92H213.257C213.854 54.92 214.153 55.1547 214.153 55.624C214.153 56.008 213.833 56.264 213.193 56.392L212.489 56.52C211.764 56.648 211.294 56.904 211.081 57.288C210.91 57.6293 210.932 58.2693 211.145 59.208L218.697 90.44C218.782 90.7387 218.91 90.888 219.081 90.888C219.294 90.888 219.444 90.7387 219.529 90.44L222.409 80.008C222.878 78.3867 223.113 76.8933 223.113 75.528C223.113 74.1627 222.9 72.648 222.473 70.984L219.785 60.04C219.486 58.8453 219.188 57.992 218.889 57.48C218.633 56.968 218.27 56.6693 217.801 56.584L216.841 56.392C216.244 56.264 215.945 55.9867 215.945 55.56C215.945 55.1333 216.265 54.92 216.905 54.92H225.673C226.27 54.92 226.569 55.1547 226.569 55.624C226.569 56.008 226.249 56.264 225.609 56.392L224.905 56.52C224.35 56.6053 224.009 56.84 223.881 57.224C223.796 57.608 223.86 58.2693 224.073 59.208L226.249 68.36C226.334 68.6587 226.462 68.808 226.633 68.808C226.846 68.808 226.996 68.6587 227.081 68.36L229.385 60.552C229.854 58.9307 230.025 57.864 229.897 57.352C229.812 56.84 229.577 56.5627 229.193 56.52L228.489 56.392C227.849 56.264 227.529 56.008 227.529 55.624C227.529 55.1547 227.828 54.92 228.425 54.92H234.505C235.23 54.92 235.593 55.1547 235.593 55.624C235.593 56.0507 235.23 56.3067 234.505 56.392L233.801 56.456C233.246 56.4987 232.777 56.84 232.393 57.48C232.052 58.12 231.668 59.1653 231.241 60.616L228.809 69C228.34 70.5787 228.084 72.072 228.041 73.48C228.041 74.8453 228.233 76.36 228.617 78.024L231.497 90.056C231.582 90.3547 231.71 90.504 231.881 90.504C232.094 90.504 232.222 90.3547 232.265 90.056L239.625 60.552C240.222 58.0773 239.838 56.7333 238.473 56.52L237.769 56.392C237.129 56.264 236.809 55.9867 236.809 55.56C236.809 55.1333 237.108 54.92 237.705 54.92H244.873C245.598 54.92 245.961 55.1547 245.961 55.624C245.961 56.0507 245.598 56.3067 244.873 56.392L244.169 56.456C243.614 56.4987 243.124 56.84 242.697 57.48C242.313 58.0773 241.95 59.1227 241.609 60.616L231.689 100.616C231.604 101.043 231.476 101.32 231.305 101.448C231.134 101.576 230.964 101.64 230.793 101.64ZM245.369 101C244.729 101 244.409 100.765 244.409 100.296C244.409 99.912 244.686 99.656 245.241 99.528L246.713 99.272C247.609 99.1013 248.185 98.8667 248.441 98.568C248.739 98.2693 248.889 97.672 248.889 96.776V59.144C248.889 58.248 248.739 57.6507 248.441 57.352C248.185 57.0533 247.609 56.8187 246.713 56.648L245.241 56.392C244.686 56.264 244.409 56.008 244.409 55.624C244.409 55.1547 244.729 54.92 245.369 54.92H266.873C267.854 54.92 268.387 55.4107 268.473 56.392L268.985 67.016C269.07 67.7413 268.793 68.104 268.153 68.104C267.641 68.104 267.342 67.8267 267.257 67.272L266.873 64.904C266.403 62.0027 265.443 59.8907 263.993 58.568C262.542 57.2027 260.537 56.52 257.977 56.52C256.27 56.52 255.075 56.776 254.393 57.288C253.753 57.7573 253.433 58.6107 253.433 59.848V75.272C253.433 75.8693 253.731 76.168 254.329 76.168H257.529C259.406 76.168 260.558 75.1653 260.985 73.16L261.625 69.96C261.795 69.32 262.158 69.0427 262.713 69.128C263.182 69.2133 263.417 69.576 263.417 70.216V84.616C263.417 85.256 263.182 85.6187 262.713 85.704C262.158 85.7893 261.795 85.512 261.625 84.872L260.985 81.736C260.686 80.2427 260.259 79.2613 259.705 78.792C259.193 78.3227 258.446 78.088 257.465 78.088H254.329C253.731 78.088 253.433 78.3867 253.433 78.984V95.048C253.433 96.584 253.817 97.6933 254.585 98.376C255.395 99.0587 256.846 99.4 258.937 99.4C261.07 99.4 262.883 98.8667 264.377 97.8C265.913 96.6907 266.979 94.6427 267.577 91.656L268.345 87.88C268.473 87.3253 268.793 87.048 269.305 87.048C269.902 87.048 270.158 87.4107 270.073 88.136L269.433 99.528C269.347 100.509 268.814 101 267.833 101H245.369ZM273.728 101C273.088 101 272.768 100.765 272.768 100.296C272.768 99.912 273.046 99.656 273.6 99.528L275.072 99.272C275.968 99.1013 276.544 98.8667 276.8 98.568C277.099 98.2693 277.248 97.672 277.248 96.776V59.144C277.248 58.248 277.099 57.6507 276.8 57.352C276.544 57.0533 275.968 56.8187 275.072 56.648L273.6 56.392C273.046 56.264 272.768 56.008 272.768 55.624C272.768 55.1547 273.088 54.92 273.728 54.92H295.232C296.214 54.92 296.747 55.4107 296.832 56.392L297.344 67.016C297.43 67.7413 297.152 68.104 296.512 68.104C296 68.104 295.702 67.8267 295.616 67.272L295.232 64.904C294.763 62.0027 293.803 59.8907 292.352 58.568C290.902 57.2027 288.896 56.52 286.336 56.52C284.63 56.52 283.435 56.776 282.752 57.288C282.112 57.7573 281.792 58.6107 281.792 59.848V75.272C281.792 75.8693 282.091 76.168 282.688 76.168H285.888C287.766 76.168 288.918 75.1653 289.344 73.16L289.984 69.96C290.155 69.32 290.518 69.0427 291.072 69.128C291.542 69.2133 291.776 69.576 291.776 70.216V84.616C291.776 85.256 291.542 85.6187 291.072 85.704C290.518 85.7893 290.155 85.512 289.984 84.872L289.344 81.736C289.046 80.2427 288.619 79.2613 288.064 78.792C287.552 78.3227 286.806 78.088 285.824 78.088H282.688C282.091 78.088 281.792 78.3867 281.792 78.984V95.048C281.792 96.584 282.176 97.6933 282.944 98.376C283.755 99.0587 285.206 99.4 287.296 99.4C289.43 99.4 291.243 98.8667 292.736 97.8C294.272 96.6907 295.339 94.6427 295.936 91.656L296.704 87.88C296.832 87.3253 297.152 87.048 297.664 87.048C298.262 87.048 298.518 87.4107 298.432 88.136L297.792 99.528C297.707 100.509 297.174 101 296.192 101H273.728ZM307.465 101C306.825 101 306.505 100.765 306.505 100.296C306.505 99.8267 306.782 99.5707 307.337 99.528L310.217 99.08C311.07 98.952 311.646 98.7387 311.945 98.44C312.243 98.0987 312.393 97.48 312.393 96.584V58.184C312.393 57.5867 312.265 57.16 312.009 56.904C311.753 56.648 311.219 56.52 310.409 56.52C308.83 56.52 307.273 57.2027 305.737 58.568C304.201 59.9333 303.198 62.1307 302.729 65.16L302.409 67.272C302.323 67.8267 302.025 68.104 301.513 68.104C300.873 68.104 300.595 67.7413 300.681 67.016L301.257 55.432C301.342 54.4507 301.726 53.96 302.409 53.96C302.707 53.96 302.985 54.0453 303.241 54.216C303.497 54.344 303.923 54.4933 304.521 54.664C305.161 54.8347 306.163 54.92 307.529 54.92H321.801C323.166 54.92 324.147 54.8347 324.745 54.664C325.385 54.4933 325.833 54.344 326.089 54.216C326.387 54.0453 326.665 53.96 326.921 53.96C327.603 53.96 327.987 54.4507 328.073 55.432L328.649 67.016C328.734 67.7413 328.457 68.104 327.817 68.104C327.305 68.104 327.006 67.8267 326.921 67.272L326.601 65.16C326.174 62.1307 325.193 59.9333 323.657 58.568C322.121 57.2027 320.542 56.52 318.921 56.52C318.11 56.52 317.577 56.648 317.321 56.904C317.065 57.16 316.937 57.5867 316.937 58.184V96.584C316.937 97.48 317.086 98.0987 317.385 98.44C317.726 98.7387 318.302 98.952 319.113 99.08L321.993 99.528C322.547 99.5707 322.825 99.8267 322.825 100.296C322.825 100.765 322.505 101 321.865 101H307.465ZM340.548 101.576C339.695 101.576 338.735 101.491 337.668 101.32C336.644 101.149 335.663 100.936 334.724 100.68C333.828 100.424 333.124 100.147 332.612 99.848C332.314 99.6773 332.079 99.5067 331.908 99.336C331.78 99.1227 331.716 98.7813 331.716 98.312L331.396 88.264C331.396 87.4107 331.674 86.984 332.228 86.984C332.698 86.984 333.018 87.368 333.188 88.136L333.764 90.568C335.215 96.6693 337.924 99.72 341.892 99.72C344.026 99.72 345.711 99.016 346.948 97.608C348.228 96.1573 348.868 94.1307 348.868 91.528C348.868 89.0107 348.207 86.664 346.884 84.488C345.604 82.312 343.535 80.1573 340.676 78.024C337.519 75.7627 335.215 73.5867 333.764 71.496C332.314 69.3627 331.588 67.1013 331.588 64.712C331.588 61.5547 332.676 59.0373 334.852 57.16C337.071 55.24 339.887 54.28 343.3 54.28C344.58 54.28 345.818 54.4293 347.012 54.728C348.207 55.0267 349.188 55.4533 349.956 56.008C350.212 56.1787 350.404 56.3707 350.532 56.584C350.703 56.7973 350.788 57.0747 350.788 57.416L350.98 67.08C350.98 67.8053 350.703 68.168 350.148 68.168C349.764 68.168 349.487 67.8693 349.316 67.272L348.868 65.672C347.93 62.3867 346.948 59.9973 345.924 58.504C344.943 56.968 343.514 56.2 341.636 56.2C339.802 56.2 338.33 56.7973 337.22 57.992C336.154 59.1867 335.62 60.872 335.62 63.048C335.62 64.8827 336.218 66.632 337.412 68.296C338.607 69.96 340.698 71.9867 343.684 74.376C346.884 76.9787 349.21 79.496 350.66 81.928C352.154 84.3173 352.9 86.8773 352.9 89.608C352.9 91.9973 352.367 94.088 351.3 95.88C350.234 97.672 348.762 99.08 346.884 100.104C345.05 101.085 342.938 101.576 340.548 101.576Z" fill="#0A2256"/>
<path d="M156.34 36C156.004 36 155.836 35.88 155.836 35.64C155.836 35.4 156.028 35.244 156.412 35.172L157.924 34.92C158.404 34.848 158.764 34.728 159.004 34.56C159.244 34.368 159.412 34.02 159.508 33.516L164.512 11.916C164.584 11.58 164.548 11.34 164.404 11.196C164.284 11.052 163.996 10.98 163.54 10.98C162.724 10.98 161.824 11.316 160.84 11.988C159.88 12.636 159.016 13.86 158.248 15.66L157.672 17.028C157.552 17.34 157.348 17.496 157.06 17.496C156.724 17.496 156.616 17.292 156.736 16.884L158.536 10.368C158.68 9.816 158.944 9.54 159.328 9.54C159.544 9.54 159.712 9.588 159.832 9.684C159.976 9.756 160.204 9.84 160.516 9.936C160.828 10.032 161.368 10.08 162.136 10.08H170.164C170.932 10.08 171.496 10.032 171.856 9.936C172.24 9.84 172.516 9.756 172.684 9.684C172.876 9.588 173.044 9.54 173.188 9.54C173.596 9.54 173.74 9.816 173.62 10.368L172.468 16.884C172.396 17.292 172.192 17.496 171.856 17.496C171.544 17.496 171.412 17.34 171.46 17.028L171.532 16.128C171.676 14.352 171.448 13.056 170.848 12.24C170.248 11.4 169.408 10.98 168.328 10.98C167.872 10.98 167.548 11.052 167.356 11.196C167.188 11.34 167.068 11.58 166.996 11.916L161.992 33.516C161.872 34.02 161.884 34.368 162.028 34.56C162.196 34.728 162.508 34.848 162.964 34.92L164.656 35.172C164.92 35.196 165.052 35.328 165.052 35.568C165.052 35.856 164.86 36 164.476 36H156.34ZM182.186 36.324C181.322 36.324 180.674 35.964 180.242 35.244C179.81 34.524 179.786 33.408 180.17 31.896L182.942 21.456C183.206 20.52 183.242 19.872 183.05 19.512C182.882 19.152 182.63 18.972 182.294 18.972C181.766 18.972 181.166 19.308 180.494 19.98C179.846 20.628 179.162 21.528 178.442 22.68C177.746 23.808 177.062 25.092 176.39 26.532C175.742 27.948 175.142 29.448 174.59 31.032C174.038 32.592 173.594 34.116 173.258 35.604C173.186 35.868 173.018 36 172.754 36H171.242C170.906 36 170.774 35.844 170.846 35.532L176.102 12.96C176.222 12.528 176.222 12.228 176.102 12.06C176.006 11.892 175.79 11.796 175.454 11.772L174.374 11.664C174.014 11.64 173.858 11.484 173.906 11.196C173.954 10.98 174.122 10.848 174.41 10.8C175.274 10.656 176.042 10.488 176.714 10.296C177.386 10.08 177.926 9.804 178.334 9.468C178.526 9.324 178.706 9.252 178.874 9.252C179.162 9.252 179.27 9.432 179.198 9.792L175.67 25.092C175.646 25.26 175.682 25.356 175.778 25.38C175.874 25.404 175.958 25.344 176.03 25.2C176.99 23.232 177.902 21.684 178.766 20.556C179.63 19.428 180.434 18.624 181.178 18.144C181.946 17.664 182.642 17.424 183.266 17.424C184.154 17.424 184.802 17.784 185.21 18.504C185.618 19.224 185.618 20.328 185.21 21.816L182.474 32.256C182.306 32.928 182.294 33.432 182.438 33.768C182.582 34.104 182.846 34.272 183.23 34.272C183.71 34.272 184.178 33.96 184.634 33.336C185.09 32.688 185.582 31.476 186.11 29.7C186.182 29.436 186.338 29.304 186.578 29.304C186.77 29.304 186.878 29.376 186.902 29.52C186.95 29.664 186.95 29.832 186.902 30.024C186.446 31.656 185.954 32.94 185.426 33.876C184.898 34.788 184.358 35.424 183.806 35.784C183.278 36.144 182.738 36.324 182.186 36.324ZM192.359 36.324C191.087 36.324 190.067 35.832 189.299 34.848C188.531 33.84 188.147 32.424 188.147 30.6C188.147 29.016 188.423 27.444 188.975 25.884C189.551 24.324 190.295 22.908 191.207 21.636C192.119 20.364 193.115 19.344 194.195 18.576C195.299 17.808 196.367 17.424 197.399 17.424C198.527 17.424 199.331 17.7 199.811 18.252C200.315 18.78 200.567 19.5 200.567 20.412C200.567 21.492 200.183 22.572 199.415 23.652C198.671 24.708 197.615 25.656 196.247 26.496C194.903 27.336 193.319 27.96 191.495 28.368C190.967 28.488 190.691 28.788 190.667 29.268C190.643 29.436 190.631 29.616 190.631 29.808C190.631 29.976 190.631 30.144 190.631 30.312C190.631 31.68 190.859 32.712 191.315 33.408C191.795 34.104 192.443 34.452 193.259 34.452C194.171 34.452 195.047 34.032 195.887 33.192C196.751 32.352 197.471 31.164 198.047 29.628C198.119 29.412 198.263 29.304 198.479 29.304C198.623 29.304 198.707 29.364 198.731 29.484C198.779 29.604 198.779 29.748 198.731 29.916C197.963 32.028 197.027 33.624 195.923 34.704C194.843 35.784 193.655 36.324 192.359 36.324ZM191.027 27C190.979 27.168 191.003 27.312 191.099 27.432C191.219 27.528 191.363 27.552 191.531 27.504C193.019 27.096 194.267 26.484 195.275 25.668C196.283 24.828 197.039 23.892 197.543 22.86C198.071 21.828 198.335 20.82 198.335 19.836C198.335 18.828 197.939 18.324 197.147 18.324C196.451 18.324 195.695 18.732 194.879 19.548C194.063 20.364 193.307 21.432 192.611 22.752C191.915 24.072 191.387 25.488 191.027 27Z" fill="#0A2256"/>
<path d="M43.3588 139L41.6308 137.104L40.5268 136.12L35.8948 132.016C35.4148 131.6 34.9028 131.16 34.3588 130.696C33.8148 130.232 33.3028 129.752 32.8228 129.256C32.3588 128.744 31.9748 128.224 31.6708 127.696C31.3828 127.168 31.2388 126.632 31.2388 126.088C31.2388 125.448 31.4708 124.8 31.9348 124.144C32.4148 123.488 33.1028 122.936 33.9988 122.488C34.8948 122.04 35.9748 121.816 37.2388 121.816C38.4068 121.816 39.4388 121.976 40.3348 122.296C41.2468 122.6 42.0228 123.008 42.6628 123.52C43.3188 124.032 43.8388 124.616 44.2228 125.272L42.0628 127.168C41.4868 126.256 40.7588 125.592 39.8788 125.176C39.0148 124.76 38.1828 124.552 37.3828 124.552C36.9348 124.552 36.5108 124.6 36.1108 124.696C35.7268 124.792 35.4068 124.952 35.1508 125.176C34.9108 125.4 34.7908 125.688 34.7908 126.04C34.7908 126.28 34.8788 126.544 35.0548 126.832C35.2308 127.104 35.4468 127.376 35.7028 127.648C35.9588 127.92 36.2388 128.184 36.5428 128.44C36.8468 128.696 37.1268 128.944 37.3828 129.184L43.0948 134.248L43.8868 135.16L47.5348 139H43.3588ZM36.2068 139.384C34.4468 139.384 32.9908 139.136 31.8388 138.64C30.6868 138.128 29.8308 137.464 29.2708 136.648C28.7268 135.832 28.4548 134.968 28.4548 134.056C28.4548 132.968 28.8388 131.96 29.6068 131.032C30.3748 130.088 31.5508 129.312 33.1348 128.704L35.1028 130.6C33.9028 130.92 33.0708 131.352 32.6068 131.896C32.1588 132.424 31.9348 133 31.9348 133.624C31.9348 134.088 32.0708 134.536 32.3428 134.968C32.6308 135.4 33.0948 135.752 33.7348 136.024C34.3908 136.296 35.2628 136.432 36.3508 136.432C36.9428 136.432 37.5908 136.344 38.2948 136.168C39.0148 135.992 39.6868 135.696 40.3108 135.28C40.9348 134.864 41.4468 134.304 41.8468 133.6C42.2628 132.88 42.4548 132 42.4228 130.96H45.6148C45.6148 132.128 45.4148 133.168 45.0148 134.08C44.6308 134.992 44.1108 135.784 43.4548 136.456C42.7988 137.112 42.0628 137.656 41.2468 138.088C40.4308 138.52 39.5908 138.84 38.7268 139.048C37.8628 139.272 37.0228 139.384 36.2068 139.384ZM73.5792 139.24C72.3312 139.24 71.1792 139.12 70.1232 138.88C69.0672 138.64 68.0992 138.288 67.2192 137.824C66.3552 137.36 65.5632 136.8 64.8432 136.144L66.5712 133.576C67.7072 134.6 68.8592 135.352 70.0272 135.832C71.1952 136.296 72.4192 136.528 73.6992 136.528C74.4352 136.528 75.1472 136.448 75.8352 136.288C76.5392 136.112 77.1232 135.848 77.5872 135.496C78.0512 135.144 78.2832 134.68 78.2832 134.104C78.2832 133.752 78.1632 133.464 77.9232 133.24C77.6832 133 77.3632 132.808 76.9632 132.664C76.5632 132.52 76.1232 132.408 75.6432 132.328C75.1632 132.232 74.6832 132.16 74.2032 132.112C73.7232 132.064 73.2912 132.024 72.9072 131.992C71.8192 131.864 70.8272 131.68 69.9312 131.44C69.0512 131.184 68.2992 130.856 67.6752 130.456C67.0512 130.056 66.5712 129.576 66.2352 129.016C65.8992 128.44 65.7312 127.776 65.7312 127.024C65.7312 126.208 65.9232 125.488 66.3072 124.864C66.7072 124.224 67.2592 123.688 67.9632 123.256C68.6832 122.824 69.5072 122.496 70.4352 122.272C71.3792 122.032 72.3952 121.912 73.4832 121.912C74.6352 121.912 75.6832 122.024 76.6272 122.248C77.5712 122.472 78.4112 122.792 79.1472 123.208C79.8832 123.608 80.4912 124.096 80.9712 124.672L79.1472 126.904C78.6832 126.408 78.1472 125.992 77.5392 125.656C76.9312 125.32 76.2752 125.072 75.5712 124.912C74.8672 124.736 74.1392 124.648 73.3872 124.648C72.5712 124.648 71.8352 124.728 71.1792 124.888C70.5392 125.048 70.0272 125.28 69.6432 125.584C69.2752 125.888 69.0912 126.272 69.0912 126.736C69.0912 127.12 69.2192 127.448 69.4752 127.72C69.7472 127.992 70.1072 128.216 70.5552 128.392C71.0032 128.568 71.5232 128.712 72.1152 128.824C72.7232 128.92 73.3632 129.008 74.0352 129.088C74.9952 129.2 75.9312 129.344 76.8432 129.52C77.7552 129.68 78.5712 129.92 79.2912 130.24C80.0112 130.56 80.5792 131 80.9952 131.56C81.4272 132.104 81.6432 132.832 81.6432 133.744C81.6432 134.864 81.2992 135.84 80.6112 136.672C79.9392 137.488 78.9952 138.12 77.7792 138.568C76.5792 139.016 75.1792 139.24 73.5792 139.24ZM93.438 139V125.08H86.958V122.2H103.182V125.08H96.558V139H93.438ZM118.176 139.24C116.672 139.24 115.288 139.024 114.024 138.592C112.776 138.144 111.688 137.528 110.76 136.744C109.832 135.944 109.112 135.024 108.6 133.984C108.104 132.928 107.856 131.792 107.856 130.576C107.856 129.36 108.104 128.232 108.6 127.192C109.112 126.136 109.832 125.216 110.76 124.432C111.688 123.632 112.776 123.016 114.024 122.584C115.288 122.136 116.672 121.912 118.176 121.912C119.68 121.912 121.056 122.136 122.304 122.584C123.568 123.016 124.656 123.632 125.568 124.432C126.496 125.216 127.216 126.136 127.728 127.192C128.24 128.232 128.496 129.36 128.496 130.576C128.496 131.792 128.24 132.928 127.728 133.984C127.216 135.024 126.496 135.944 125.568 136.744C124.656 137.528 123.568 138.144 122.304 138.592C121.056 139.024 119.68 139.24 118.176 139.24ZM118.176 136.264C119.232 136.264 120.192 136.12 121.056 135.832C121.92 135.544 122.672 135.144 123.312 134.632C123.952 134.104 124.448 133.496 124.8 132.808C125.152 132.12 125.328 131.376 125.328 130.576C125.328 129.776 125.152 129.032 124.8 128.344C124.448 127.656 123.952 127.056 123.312 126.544C122.672 126.016 121.92 125.608 121.056 125.32C120.192 125.032 119.232 124.888 118.176 124.888C117.136 124.888 116.176 125.032 115.296 125.32C114.416 125.608 113.656 126.016 113.016 126.544C112.392 127.056 111.904 127.656 111.552 128.344C111.216 129.032 111.048 129.776 111.048 130.576C111.048 131.376 111.216 132.12 111.552 132.808C111.904 133.496 112.392 134.104 113.016 134.632C113.656 135.144 114.416 135.544 115.296 135.832C116.176 136.12 117.136 136.264 118.176 136.264ZM144.535 139.24C143.143 139.24 141.839 139.04 140.623 138.64C139.423 138.224 138.367 137.632 137.455 136.864C136.559 136.096 135.855 135.184 135.343 134.128C134.831 133.056 134.575 131.872 134.575 130.576C134.575 129.328 134.839 128.184 135.367 127.144C135.895 126.088 136.615 125.176 137.527 124.408C138.439 123.64 139.495 123.048 140.695 122.632C141.895 122.2 143.167 121.984 144.511 121.984C145.599 121.984 146.631 122.12 147.607 122.392C148.599 122.648 149.503 122.984 150.319 123.4C151.135 123.816 151.799 124.256 152.311 124.72L150.511 127.288C149.983 126.84 149.407 126.44 148.783 126.088C148.159 125.736 147.471 125.464 146.719 125.272C145.983 125.064 145.167 124.96 144.271 124.96C143.455 124.96 142.663 125.088 141.895 125.344C141.127 125.6 140.431 125.976 139.807 126.472C139.183 126.952 138.687 127.544 138.319 128.248C137.951 128.936 137.767 129.72 137.767 130.6C137.767 131.544 137.959 132.368 138.343 133.072C138.727 133.776 139.247 134.368 139.903 134.848C140.575 135.328 141.327 135.696 142.159 135.952C142.991 136.192 143.847 136.312 144.727 136.312C145.687 136.312 146.535 136.192 147.271 135.952C148.007 135.696 148.655 135.392 149.215 135.04C149.791 134.672 150.311 134.32 150.775 133.984L152.263 136.504C151.799 136.872 151.175 137.272 150.391 137.704C149.607 138.136 148.711 138.504 147.703 138.808C146.711 139.096 145.655 139.24 144.535 139.24ZM161.655 134.896L161.319 131.752L173.535 122.2H177.879L161.655 134.896ZM159.495 139V122.2H162.615V139H159.495ZM173.655 139L166.359 130.024L168.255 127.72L177.663 139H173.655ZM197.229 139V122.2H207.189C208.229 122.2 209.173 122.432 210.021 122.896C210.885 123.36 211.573 123.992 212.085 124.792C212.597 125.592 212.853 126.488 212.853 127.48C212.853 128.536 212.573 129.488 212.013 130.336C211.453 131.184 210.709 131.856 209.781 132.352C208.853 132.848 207.829 133.096 206.709 133.096H200.349V139H197.229ZM200.349 130.216H206.301C206.877 130.216 207.413 130.096 207.909 129.856C208.405 129.6 208.797 129.272 209.085 128.872C209.389 128.456 209.541 128 209.541 127.504C209.541 127.04 209.389 126.632 209.085 126.28C208.797 125.912 208.405 125.624 207.909 125.416C207.413 125.192 206.877 125.08 206.301 125.08H200.349V130.216ZM220.338 139V122.2H230.13C231.25 122.2 232.242 122.424 233.106 122.872C233.97 123.32 234.65 123.944 235.146 124.744C235.658 125.528 235.914 126.424 235.914 127.432C235.914 128.472 235.634 129.408 235.074 130.24C234.53 131.072 233.794 131.736 232.866 132.232C231.954 132.712 230.938 132.952 229.818 132.952H223.386V139H220.338ZM233.106 139L227.394 131.416L230.706 130.816L236.898 139.024L233.106 139ZM223.386 130.24H229.506C230.066 130.24 230.586 130.12 231.066 129.88C231.546 129.624 231.93 129.296 232.218 128.896C232.506 128.48 232.65 128.016 232.65 127.504C232.65 127.024 232.506 126.6 232.218 126.232C231.93 125.864 231.546 125.568 231.066 125.344C230.586 125.12 230.058 125.008 229.482 125.008H223.386V130.24ZM244.955 139V136.072H249.395V125.128H244.955V122.2H256.955V125.128H252.515V136.072H256.955V139H244.955ZM274.144 139.24C272.752 139.24 271.448 139.04 270.232 138.64C269.032 138.224 267.976 137.632 267.064 136.864C266.168 136.096 265.464 135.184 264.952 134.128C264.44 133.056 264.184 131.872 264.184 130.576C264.184 129.328 264.448 128.184 264.976 127.144C265.504 126.088 266.224 125.176 267.136 124.408C268.048 123.64 269.104 123.048 270.304 122.632C271.504 122.2 272.776 121.984 274.12 121.984C275.208 121.984 276.24 122.12 277.216 122.392C278.208 122.648 279.112 122.984 279.928 123.4C280.744 123.816 281.408 124.256 281.92 124.72L280.12 127.288C279.592 126.84 279.016 126.44 278.392 126.088C277.768 125.736 277.08 125.464 276.328 125.272C275.592 125.064 274.776 124.96 273.88 124.96C273.064 124.96 272.272 125.088 271.504 125.344C270.736 125.6 270.04 125.976 269.416 126.472C268.792 126.952 268.296 127.544 267.928 128.248C267.56 128.936 267.376 129.72 267.376 130.6C267.376 131.544 267.568 132.368 267.952 133.072C268.336 133.776 268.856 134.368 269.512 134.848C270.184 135.328 270.936 135.696 271.768 135.952C272.6 136.192 273.456 136.312 274.336 136.312C275.296 136.312 276.144 136.192 276.88 135.952C277.616 135.696 278.264 135.392 278.824 135.04C279.4 134.672 279.92 134.32 280.384 133.984L281.872 136.504C281.408 136.872 280.784 137.272 280 137.704C279.216 138.136 278.32 138.504 277.312 138.808C276.32 139.096 275.264 139.24 274.144 139.24ZM289.104 139V122.2H303.456V125.032H292.176V136.168H303.552V139H289.104ZM290.784 131.8V129.016H302.232V131.8H290.784ZM318.782 139.24C317.534 139.24 316.382 139.12 315.326 138.88C314.27 138.64 313.302 138.288 312.422 137.824C311.558 137.36 310.766 136.8 310.046 136.144L311.774 133.576C312.91 134.6 314.062 135.352 315.23 135.832C316.398 136.296 317.622 136.528 318.902 136.528C319.638 136.528 320.35 136.448 321.038 136.288C321.742 136.112 322.326 135.848 322.79 135.496C323.254 135.144 323.486 134.68 323.486 134.104C323.486 133.752 323.366 133.464 323.126 133.24C322.886 133 322.566 132.808 322.166 132.664C321.766 132.52 321.326 132.408 320.846 132.328C320.366 132.232 319.886 132.16 319.406 132.112C318.926 132.064 318.494 132.024 318.11 131.992C317.022 131.864 316.03 131.68 315.134 131.44C314.254 131.184 313.502 130.856 312.878 130.456C312.254 130.056 311.774 129.576 311.438 129.016C311.102 128.44 310.934 127.776 310.934 127.024C310.934 126.208 311.126 125.488 311.51 124.864C311.91 124.224 312.462 123.688 313.166 123.256C313.886 122.824 314.71 122.496 315.638 122.272C316.582 122.032 317.598 121.912 318.686 121.912C319.838 121.912 320.886 122.024 321.83 122.248C322.774 122.472 323.614 122.792 324.35 123.208C325.086 123.608 325.694 124.096 326.174 124.672L324.35 126.904C323.886 126.408 323.35 125.992 322.742 125.656C322.134 125.32 321.478 125.072 320.774 124.912C320.07 124.736 319.342 124.648 318.59 124.648C317.774 124.648 317.038 124.728 316.382 124.888C315.742 125.048 315.23 125.28 314.846 125.584C314.478 125.888 314.294 126.272 314.294 126.736C314.294 127.12 314.422 127.448 314.678 127.72C314.95 127.992 315.31 128.216 315.758 128.392C316.206 128.568 316.726 128.712 317.318 128.824C317.926 128.92 318.566 129.008 319.238 129.088C320.198 129.2 321.134 129.344 322.046 129.52C322.958 129.68 323.774 129.92 324.494 130.24C325.214 130.56 325.782 131 326.198 131.56C326.63 132.104 326.846 132.832 326.846 133.744C326.846 134.864 326.502 135.84 325.814 136.672C325.142 137.488 324.198 138.12 322.982 138.568C321.782 139.016 320.382 139.24 318.782 139.24Z" fill="#0A2256"/>
</svg>
